<svg id="OPST_logo_UNCOATED" data-name="OPST logo UNCOATED" xmlns="http://www.w3.org/2000/svg" viewBox="0 0 159.94 117.85"><defs><style>.cls-1{fill:#006935;}.cls-2,.cls-5{fill:#ffd300;}.cls-3{fill:#dd052b;}.cls-4{fill:#fff;}.cls-5{fill-rule:evenodd;}.cls-6{fill:#1d1d1b;}</style></defs><path class="cls-1" d="M4.89,81.9a11.84,11.84,0,0,1,8.52-3.39,11.68,11.68,0,0,1,8.92,3.72,12.57,12.57,0,0,1,3,8.45,12.32,12.32,0,0,1-3.51,8.95,11.78,11.78,0,0,1-8.41,3.21,11.78,11.78,0,0,1-8.16-3,12.2,12.2,0,0,1-3.71-9.13A12.49,12.49,0,0,1,4.89,81.9Zm8.52-.5C8.29,81.4,5,85,5,90.71S8.29,100,13.41,100s8.45-3.61,8.45-9.32C21.86,85.3,18.83,81.4,13.41,81.4Z" transform="translate(-1.54 -1.47)"/><path class="cls-1" d="M34.39,102.84a7.29,7.29,0,0,1-2.74-.5v8.56H28.47V86.13A17.24,17.24,0,0,1,34.39,85c5.49,0,8.7,3.36,8.7,8.74C43.09,99.49,38.94,102.84,34.39,102.84Zm-.11-15.09a8.51,8.51,0,0,0-2.63.4V99.59a6.09,6.09,0,0,0,2.6.58c3.39,0,5.56-2.42,5.56-6.35C39.81,89.63,37.28,87.75,34.28,87.75Z" transform="translate(-1.54 -1.47)"/><path class="cls-1" d="M50.3,102.84a10,10,0,0,1-5.48-1.4L46,99a8,8,0,0,0,4.3,1.33c2,0,3.36-.86,3.36-2.31,0-3.79-7.8-2.42-7.8-8.37,0-2.6,2-4.7,6-4.7a11,11,0,0,1,4.51.91v2.74a10.61,10.61,0,0,0-4.41-1.05c-1.66,0-2.92.58-2.92,2,0,3.43,7.94,2.49,7.94,8.2C56.91,101.36,53.84,102.84,50.3,102.84Z" transform="translate(-1.54 -1.47)"/><path class="cls-1" d="M65.5,102.84c-2.67,0-3.86-1.51-3.86-3.75V88H58.79V85.4h2.85V81.58l3.22-1V85.4h5.27l-1,2.57H64.86V98c0,1.4.54,2,1.65,2a5.32,5.32,0,0,0,3-1.12l.93,2.17A8.87,8.87,0,0,1,65.5,102.84Z" transform="translate(-1.54 -1.47)"/><path class="cls-1" d="M75.72,94.61a5.2,5.2,0,0,0,5.38,5.53,8.38,8.38,0,0,0,4.15-1.2l.91,2.13a9.88,9.88,0,0,1-5.67,1.77c-5.56,0-8.13-4.37-8.13-9.13S75.22,85,79.58,85s7.08,3.5,7.08,8.81v.83Zm3.83-7c-2.38,0-3.87,2.1-3.87,4.55h7.59C83.27,89.92,82,87.57,79.55,87.57Z" transform="translate(-1.54 -1.47)"/><path class="cls-1" d="M98.86,88.51a3.79,3.79,0,0,0-1.77-.4A5.78,5.78,0,0,0,93.52,90v12.49H90.31V85.4H93l.39,1.92C95.5,85.37,96.84,85,98.17,85a3.7,3.7,0,0,1,2,.58Z" transform="translate(-1.54 -1.47)"/><path class="cls-1" d="M105.83,102.84c-2.34,0-3.28-1.44-3.28-3.35V77.23l3.17,3.36V98.08c0,1.48.36,1.87,1.34,1.87a3.21,3.21,0,0,0,1-.14l.4,2.35A5.3,5.3,0,0,1,105.83,102.84Z" transform="translate(-1.54 -1.47)"/><path class="cls-1" d="M122.23,102.48l-.69-1.62a7.25,7.25,0,0,1-5.16,2,5.14,5.14,0,0,1-5.34-5.3c0-3.43,2.49-5.46,7-5.6l3.32-.11v-.65c0-2.63-1.51-3.57-3.53-3.57a7.41,7.41,0,0,0-4.48,1.48l-1.19-2.17a9.94,9.94,0,0,1,6.24-2c3.58,0,6.18,1.52,6.18,5.92v5.74c0,4.05.11,5.24.36,5.85Zm-.91-8.08-3.1.1c-2.82.11-4,1-4,2.78a2.8,2.8,0,0,0,3.14,2.89,5.34,5.34,0,0,0,3.93-1.66Z" transform="translate(-1.54 -1.47)"/><path class="cls-1" d="M139.89,102.48V92.12c0-2-.33-4.22-2.82-4.22-1.88,0-3.65,1.22-5,2.38v12.2h-3.17V85.4h2.67l.4,1.95A9.69,9.69,0,0,1,138,85c2.49,0,5.06,1.7,5.06,6.07v11.44Z" transform="translate(-1.54 -1.47)"/><path class="cls-1" d="M155.62,102.84c-4.87,0-9-2.85-9-8.7a8.89,8.89,0,0,1,9-9.17,11.75,11.75,0,0,1,2.56.25V80.59l3.21-3.36v24.35A12.37,12.37,0,0,1,155.62,102.84ZM158.26,88a6.62,6.62,0,0,0-2.42-.36,5.91,5.91,0,0,0-6,6.28c0,3.61,2.1,6.21,6.18,6.21a6.26,6.26,0,0,0,2.2-.4Z" transform="translate(-1.54 -1.47)"/><path class="cls-1" d="M32.53,72.92c-2.6,0-4.06-1.09-4.06-2.44,0-.9.66-1.56,1.64-2a1,1,0,0,1-.6-1,2.27,2.27,0,0,1,1-1.56,2.81,2.81,0,0,1-1.42-2.48,3.08,3.08,0,0,1,3.21-3,3.21,3.21,0,0,1,1.51.28c.11.06.16,0,.22,0a3,3,0,0,1,2.4-.58L36,61.23a1.93,1.93,0,0,0-1.26,0,2.75,2.75,0,0,1,1,2.14,3.06,3.06,0,0,1-3.38,3,3.12,3.12,0,0,1-1.09-.18,1.25,1.25,0,0,0-.44,1c0,1.2,6,0,6,3.07C36.81,71.62,35.54,72.92,32.53,72.92Zm-1.44-4.11c-.47.28-1.23.75-1.23,1.53s1.09,1.53,2.76,1.53,2.72-.6,2.72-1.48C35.34,68.91,32.22,69.11,31.09,68.81Zm1.32-7.32a1.82,1.82,0,0,0-2,1.89,1.88,1.88,0,0,0,2,2,1.84,1.84,0,0,0,2-1.94A1.86,1.86,0,0,0,32.41,61.49Z" transform="translate(-1.54 -1.47)"/><path class="cls-1" d="M39.14,64.92a2.75,2.75,0,0,0,2.86,3,4.15,4.15,0,0,0,2-.6l.4.87a4.72,4.72,0,0,1-2.71.84c-2.7,0-4-2.1-4-4.45s1.42-4.15,3.5-4.15,3.44,1.69,3.44,4.24v.29Zm2.09-3.45a2.17,2.17,0,0,0-2.07,2.38h4.06A2.17,2.17,0,0,0,41.23,61.47Z" transform="translate(-1.54 -1.47)"/><path class="cls-1" d="M57.89,68.81V63.4c0-1.1-.23-1.86-1.38-1.86a4.23,4.23,0,0,0-2.73,1.27,3.46,3.46,0,0,1,0,.46v5.54H52.47V63.43c0-1.09-.28-1.89-1.41-1.89a4.21,4.21,0,0,0-2.71,1.28v6H47V60.6h1.11l.18,1a5.17,5.17,0,0,1,3.1-1.2,2.12,2.12,0,0,1,2.11,1.38,5.12,5.12,0,0,1,3.15-1.38A2.31,2.31,0,0,1,59.22,63v5.85Z" transform="translate(-1.54 -1.47)"/><path class="cls-1" d="M63,64.92a2.75,2.75,0,0,0,2.86,3,4.15,4.15,0,0,0,2-.6l.4.87a4.72,4.72,0,0,1-2.71.84c-2.69,0-4-2.1-4-4.45s1.42-4.15,3.5-4.15,3.44,1.69,3.44,4.24v.29Zm2.1-3.45A2.18,2.18,0,0,0,63,63.85h4.06A2.16,2.16,0,0,0,65.1,61.47Z" transform="translate(-1.54 -1.47)"/><path class="cls-1" d="M71.85,64.92a2.75,2.75,0,0,0,2.86,3,4.15,4.15,0,0,0,2-.6l.4.87a4.72,4.72,0,0,1-2.71.84c-2.7,0-4-2.1-4-4.45s1.42-4.15,3.5-4.15,3.44,1.69,3.44,4.24v.29ZM74,61.47a2.17,2.17,0,0,0-2.08,2.38h4.06A2.16,2.16,0,0,0,74,61.47Z" transform="translate(-1.54 -1.47)"/><path class="cls-1" d="M85.24,68.81V63.76c0-1-.19-2.17-1.5-2.17a4.42,4.42,0,0,0-2.68,1.29v5.93H79.73V60.6h1.1l.18,1a5.07,5.07,0,0,1,3.08-1.19c1.23,0,2.47.85,2.47,2.9v5.52Z" transform="translate(-1.54 -1.47)"/><path class="cls-1" d="M91.81,69A1.63,1.63,0,0,1,90,67.23V61.68H88.56V60.6H90V58.8l1.33-.44V60.6h2.64l-.48,1.08H91.3v5.17c0,.69.27,1,.83,1a2.66,2.66,0,0,0,1.53-.59l.42.9A4.16,4.16,0,0,1,91.81,69Z" transform="translate(-1.54 -1.47)"/><path class="cls-1" d="M97,64.92a2.75,2.75,0,0,0,2.86,3,4.15,4.15,0,0,0,2-.6l.4.87a4.72,4.72,0,0,1-2.71.84c-2.7,0-4-2.1-4-4.45s1.42-4.15,3.5-4.15,3.44,1.69,3.44,4.24v.29Zm2.09-3.45a2.17,2.17,0,0,0-2.07,2.38h4.06A2.17,2.17,0,0,0,99.12,61.47Z" transform="translate(-1.54 -1.47)"/><rect class="cls-2" x="108.59" y="114.48" width="43.77" height="3.37"/><path class="cls-3" d="M148,25.25c-4-3.55-9.63-5.47-15.94-5.47s-12,1.92-15.94,5.47Z" transform="translate(-1.54 -1.47)"/><path class="cls-2" d="M110.33,25.25V53.66a21.68,21.68,0,0,0,43.36,0V25.25Z" transform="translate(-1.54 -1.47)"/><path class="cls-4" d="M132,73.67a20,20,0,0,1-20-20V26.92h40V53.66a20,20,0,0,1-20,20Z" transform="translate(-1.54 -1.47)"/><path class="cls-1" d="M132,73.67a20,20,0,0,0,17.24-9.91A74.34,74.34,0,0,0,132,62a74.08,74.08,0,0,0-17.24,1.81A20,20,0,0,0,132,73.67Z" transform="translate(-1.54 -1.47)"/><path class="cls-1" d="M145.2,63V50.2a3.52,3.52,0,0,0,2.63-3.41v-13a3.5,3.5,0,0,0-6.59-1.67,3.48,3.48,0,0,0-6.15,0,3.49,3.49,0,0,0-6.16,0h0a3.48,3.48,0,0,0-6.15,0,3.51,3.51,0,0,0-6.6,1.67v13a3.52,3.52,0,0,0,2.64,3.4V63c-1.74.28-3.11.58-4,.81a20,20,0,0,0,34.48,0C148.31,63.53,146.94,63.24,145.2,63Zm-4-14.45h0a3.47,3.47,0,0,0,2.2,1.7v12.5c-1.31-.18-2.78-.34-4.4-.47v-12A3.54,3.54,0,0,0,141.24,48.5Zm-6.15,0a3.48,3.48,0,0,0,2.19,1.7V62.1c-1.37-.07-2.84-.13-4.39-.14V50.2A3.57,3.57,0,0,0,135.09,48.49Zm-6.16,0h0a3.47,3.47,0,0,0,2.2,1.7V62c-1.55,0-3,.06-4.4.14V50.2A3.52,3.52,0,0,0,128.93,48.49Zm-8.35,1.71a3.52,3.52,0,0,0,2.2-1.71h0a3.47,3.47,0,0,0,2.2,1.7v12c-1.62.13-3.09.29-4.4.47Z" transform="translate(-1.54 -1.47)"/><path class="cls-5" d="M151.94,12.17a2.65,2.65,0,1,0-2.84,4.14,4,4,0,0,1-2.47.86,3.45,3.45,0,0,1-3.55-3.33,2.29,2.29,0,1,0-1.73-.65,3.91,3.91,0,0,1-3.19,1.5,4.78,4.78,0,0,1-4.46-2.89,2.72,2.72,0,0,0,1.69.52,2.78,2.78,0,1,0-1-5.35,7.78,7.78,0,0,0,.13-1.49A4.32,4.32,0,0,0,132,1.7a4.32,4.32,0,0,0-2.5,3.78A7,7,0,0,0,129.64,7a2.88,2.88,0,0,0-1-.2,2.78,2.78,0,0,0,0,5.55,2.72,2.72,0,0,0,1.69-.52,4.79,4.79,0,0,1-4.46,2.89,3.91,3.91,0,0,1-3.19-1.5,2.32,2.32,0,1,0-1.74.65,3.44,3.44,0,0,1-3.54,3.33,3.94,3.94,0,0,1-2.47-.86,2.65,2.65,0,1,0-2.84-4.14,3.8,3.8,0,0,0-5-.83C109.24,13,114.26,17,116.31,23A25.68,25.68,0,0,1,132,18.11,25.68,25.68,0,0,1,147.71,23c2-5.94,7.06-10,9.2-11.61A3.8,3.8,0,0,0,151.94,12.17Z" transform="translate(-1.54 -1.47)"/><path class="cls-3" d="M120.09,58.2a8,8,0,0,0-2.74.51,3.22,3.22,0,0,0-1.27,1.14c-.28.41.1,1.36,1.62-.13a9.73,9.73,0,0,1,3.27-.17c.9.08,1,.29,1.21-.41.44.32,1.22.5,3.38-.93,1.67-1.11,1.68.39,3,.29,1.12-.08,1.3-.72,2-.67a24.38,24.38,0,0,0,2.49.52,3.25,3.25,0,0,0,.9-.88c.35-.55-.39-.48-.71-.23a.82.82,0,0,1-.37.19,4.31,4.31,0,0,1-1.46-.55,1.29,1.29,0,0,0-1.18-.36c-.51.14-.88-.09-1.5-1,.58-.15,0-1.16-.35-1.22,0,.32,0,.64-.25.77s-1.72-.28-2.4.07c-.61-.1-2.82-.89-4.14-.73s-1.35.5-1.62.68-.55.41-.47.68.14.53.9.61c-.07.21-1.26.44-.38,1.85Z" transform="translate(-1.54 -1.47)"/><path class="cls-3" d="M149.33,53.07a19,19,0,0,0-4.48-1c-.69,0-2.34,0-2.67,0a5.63,5.63,0,0,0-.76,0,.65.65,0,0,0,0-.24c0-.21-.43-.93-.61-.82a2.31,2.31,0,0,0-.27,1.13,1.59,1.59,0,0,0-.44.12,3.88,3.88,0,0,0-1,.67c-.13.23-.17.67-.4.82s-1.68,1-1.71,1.18.51.57.69.63,0,.25.32.27.38-.15.75-.19.85.05,1.25,0a5.38,5.38,0,0,0,1.6-.44,4.79,4.79,0,0,1,2.3.28,9.11,9.11,0,0,1,.62,1.58c.15.44.26.7-.92.7a14,14,0,0,0-3,.17c-.46.18-2.41,1.75-2.4,2.08s.53.32.78.27a2.72,2.72,0,0,0,1-.55,1.1,1.1,0,0,1,.84-.58,19.21,19.21,0,0,1,2.34-.05,14.4,14.4,0,0,0,2.35.45c.2-.12.91-1,1.27-1.1.18,0,.67.58,1.37.77a29.57,29.57,0,0,0,3.06.26,19.68,19.68,0,0,0,.8-4.88A10.6,10.6,0,0,0,149.33,53.07Z" transform="translate(-1.54 -1.47)"/><path class="cls-6" d="M147.58,23.12A25.46,25.46,0,0,0,132,18.32h0a25.49,25.49,0,0,0-15.58,4.8h0l-.23.18-.09-.28c-2-5.87-7-9.87-9.13-11.51h0l-.23-.18.24-.16a3.44,3.44,0,0,1,2-.65h0a4.42,4.42,0,0,1,3,1.32h0a2.85,2.85,0,0,1,2.12-.95h0a2.88,2.88,0,0,1,2.87,2.87h0a2.85,2.85,0,0,1-1.69,2.61h0a3.76,3.76,0,0,0,2,.59h0A3.24,3.24,0,0,0,120.71,14h0a2.52,2.52,0,0,1-2.19-2.49h0A2.52,2.52,0,0,1,121.05,9h0a2.52,2.52,0,0,1,2.52,2.52h0A2.52,2.52,0,0,1,123,13.2h0a3.71,3.71,0,0,0,2.91,1.28h0a4.58,4.58,0,0,0,4-2.16h0a3.33,3.33,0,0,1-1.18.21h0a3,3,0,0,1-3-3h0a3,3,0,0,1,3-3h0a3.07,3.07,0,0,1,.74.1h0a8.32,8.32,0,0,1-.08-1.18h0a4.55,4.55,0,0,1,2.64-4h0l.08,0,.08,0a4.55,4.55,0,0,1,2.63,4h0a8.32,8.32,0,0,1-.08,1.18h0a3.08,3.08,0,0,1,.75-.1h0a3,3,0,0,1,3,3h0a3,3,0,0,1-3,3h0a3.35,3.35,0,0,1-1.19-.21h0a4.59,4.59,0,0,0,4,2.16h0a3.68,3.68,0,0,0,2.91-1.29h0a2.48,2.48,0,0,1-.62-1.65h0A2.52,2.52,0,0,1,143,9h0a2.52,2.52,0,0,1,2.53,2.52h0A2.52,2.52,0,0,1,143.31,14h0A3.23,3.23,0,0,0,146.63,17h0a3.79,3.79,0,0,0,2-.59h0a2.85,2.85,0,0,1-1.7-2.61h0a2.89,2.89,0,0,1,2.88-2.87h0a2.83,2.83,0,0,1,2.11.95h0A4.42,4.42,0,0,1,155,10.52h0a3.56,3.56,0,0,1,2,.65h0l.23.16-.22.18c-2.13,1.64-7.12,5.64-9.13,11.51h0l-.1.28-.23-.18Zm-31.17-.5A26,26,0,0,1,132,17.9h0a26.06,26.06,0,0,1,15.6,4.71h0c2-5.66,6.71-9.52,8.93-11.25h0a3,3,0,0,0-1.55-.42h0a3.94,3.94,0,0,0-2.89,1.36h0l-.17.21-.16-.22a2.44,2.44,0,0,0-1.94-1h0a2.46,2.46,0,0,0-2.46,2.45h0a2.45,2.45,0,0,0,1.79,2.35h0l.4.11-.33.26a4.22,4.22,0,0,1-2.6.9h0a3.65,3.65,0,0,1-3.76-3.53h0v-.21h.21a2.09,2.09,0,0,0,2-2.09h0A2.11,2.11,0,0,0,143,9.44h0a2.1,2.1,0,0,0-2.1,2.1h0a2.08,2.08,0,0,0,.63,1.5h0l.13.13-.12.15a4.13,4.13,0,0,1-3.35,1.58h0a5,5,0,0,1-4.66-3h0l-.31-.74.64.49a2.46,2.46,0,0,0,1.56.48h0A2.57,2.57,0,0,0,138,9.54h0A2.57,2.57,0,0,0,135.39,7h0a2.61,2.61,0,0,0-.93.18h0l-.37.14.08-.37a7.34,7.34,0,0,0,.13-1.45h0A4.13,4.13,0,0,0,132,1.93h0a4.16,4.16,0,0,0-2.3,3.55h0a7.34,7.34,0,0,0,.13,1.45h0l.08.38-.36-.15a2.65,2.65,0,0,0-.93-.18h0a2.56,2.56,0,0,0-2.56,2.56h0a2.57,2.57,0,0,0,2.56,2.57h0a2.5,2.5,0,0,0,1.56-.48h0l.63-.5-.31.75a5,5,0,0,1-4.65,3h0a4.12,4.12,0,0,1-3.35-1.58h0l-.13-.15.14-.13a2.08,2.08,0,0,0,.63-1.5h0a2.1,2.1,0,0,0-2.1-2.1h0a2.1,2.1,0,0,0-2.1,2.1h0a2.08,2.08,0,0,0,2,2.09h.21v.21a3.65,3.65,0,0,1-3.75,3.53h0a4.25,4.25,0,0,1-2.61-.9h0l-.32-.26.4-.11a2.44,2.44,0,0,0,1.78-2.35h0a2.45,2.45,0,0,0-2.45-2.45h0a2.45,2.45,0,0,0-2,1h0l-.16.22-.17-.21A3.94,3.94,0,0,0,109,10.94h0a3,3,0,0,0-1.55.42h0c2.22,1.73,6.89,5.59,8.94,11.26Z" transform="translate(-1.54 -1.47)"/><path class="cls-6" d="M111.79,26.7v27a20.22,20.22,0,0,0,40.44,0v-27Zm.42.43h39.6V53.66c0,.14,0,.29,0,.43a11.2,11.2,0,0,0-2.39-1.22,20.52,20.52,0,0,0-4-1V50.35A3.72,3.72,0,0,0,148,46.79v-13a3.72,3.72,0,0,0-6.81-2.09,3.71,3.71,0,0,0-6.16,0,3.7,3.7,0,0,0-6.15,0,3.71,3.71,0,0,0-6.16,0A3.71,3.71,0,0,0,116,33.82v13a3.71,3.71,0,0,0,2.64,3.56v7.79a4.87,4.87,0,0,0-1.36.38,3.64,3.64,0,0,0-1.35,1.21.72.72,0,0,0-.12.4.61.61,0,0,0,.6.61,2.42,2.42,0,0,0,1.47-.87h0a3.92,3.92,0,0,1,.76-.11v3c-1.57.26-2.83.53-3.73.75a19.77,19.77,0,0,1-2.67-9.86Zm38.8,32c-1.15-.07-2.57-.16-2.84-.24-.65-.17-1-.71-1.41-.79h-.07c-.51.13-1.18,1.07-1.32,1.13s0,0,0,0c-.33,0-1.6-.37-2.2-.46a3.57,3.57,0,0,0-.59,0c-.66,0-1.46.08-1.76.08h0a1.28,1.28,0,0,0-1,.7h0a3.21,3.21,0,0,1-.87.43h-.12a.88.88,0,0,1-.33-.06l-.07,0,0,0A10.07,10.07,0,0,1,140.62,58a15.1,15.1,0,0,1,2.95-.16c.78,0,1.19-.11,1.22-.55a1.23,1.23,0,0,0-.1-.43,8.44,8.44,0,0,0-.66-1.65,5,5,0,0,0-2-.42,1.16,1.16,0,0,0-.54.1,4.92,4.92,0,0,1-1.53.41,1.66,1.66,0,0,1-.32,0l-.57,0-.34,0a5.37,5.37,0,0,0-.72.19h0a.39.39,0,0,0-.25-.27,1.09,1.09,0,0,1-.34-.21.79.79,0,0,1-.16-.15l0,0a13.84,13.84,0,0,1,1.59-1c.36-.27.36-.74.47-.89a4.08,4.08,0,0,1,.95-.59.27.27,0,0,1,.13,0,1,1,0,0,0,0,.25l.41-.08h0a1.44,1.44,0,0,1,0-.24,4.11,4.11,0,0,1,.08-.77,2.83,2.83,0,0,1,.07-.28,2.07,2.07,0,0,1,.32.59s0,.06,0,.1,0,.1,0,.18a.49.49,0,0,0,.07.27c.08.14.27.39.27.4l.34-.26-.21-.29.47,0a5.28,5.28,0,0,0,.64,0h1.3l.75,0a19,19,0,0,1,4.42,1,10.79,10.79,0,0,1,2.5,1.32A19.67,19.67,0,0,1,151,59.14Zm-.11.41a19.35,19.35,0,0,1-1.76,4c-.9-.22-2.16-.49-3.73-.75V59.65l.16,0c.27-.2,1-1,1.2-1.08l.06.05a4.08,4.08,0,0,0,1.23.72A24.84,24.84,0,0,0,150.9,59.55Zm-5.92.06V62.7l-1.33-.19V59.3C144.08,59.4,144.59,59.54,145,59.61Zm-1.75-.4v3.24c-1.2-.16-2.53-.31-4-.42V60.26a1.75,1.75,0,0,0,.9-.58s.37-.47.64-.44h0c.35,0,1.13-.08,1.76-.08a4,4,0,0,1,.53,0ZM138,60c.14.36.53.35.8.38h.06V62c-.44,0-.88-.07-1.34-.09V55.62l.07,0,.06.12A.44.44,0,0,0,138,56h0c.27,0,.44-.16.77-.19h.08v3a2.77,2.77,0,0,0-.89,1.09A.35.35,0,0,0,138,60Zm1.28-1.55v-2.7h.36l.4,0a5.51,5.51,0,0,0,1.66-.47.9.9,0,0,1,.33,0,6.47,6.47,0,0,1,1.11.12l.12,0v2.06a10.88,10.88,0,0,0-2.76.18A9.46,9.46,0,0,0,139.25,58.45Zm4.4-1V55.49l.06,0h0a12,12,0,0,1,.57,1.49,1.21,1.21,0,0,1,.08.3s0,0-.07.05A2.26,2.26,0,0,1,143.65,57.43Zm-6.58-2.07v6.52c-1.25-.07-2.58-.11-4-.13V58.56h.07a3.18,3.18,0,0,0,1-1,.7.7,0,0,0,.12-.35.42.42,0,0,0-.46-.39,1.13,1.13,0,0,0-.68.24l-.08.05V50.35a3.7,3.7,0,0,0,2-1.49,3.72,3.72,0,0,0,2,1.49v4.07a.79.79,0,0,0-.31.39s0,0,0,0A.88.88,0,0,0,137.07,55.36Zm-6.43,2.26h-.09c-.84,0-1,.62-2,.68h-.11c-.74,0-1-.65-1.84-.7a2.19,2.19,0,0,0-1.17.44,5.25,5.25,0,0,1-2.56,1.12,1,1,0,0,1-.58-.18l-.24-.18-.08.29c-.15.41-.1.33-.22.35s-.38,0-.77-.09-.81,0-1.2,0a5.39,5.39,0,0,0-2.23.27c-.6.59-1,.75-1.18.74s-.16-.05-.18-.18a.28.28,0,0,1,0-.16,3,3,0,0,1,1.19-1.07,8,8,0,0,1,2.66-.49h.37l-.2-.31a1.52,1.52,0,0,1-.29-.8c0-.49.44-.48.69-.88l.07-.24-.25,0c-.72-.12-.6-.19-.72-.46a.06.06,0,0,1,0,0c0-.06.15-.25.4-.4s.22-.47,1.52-.66l.35,0a15.07,15.07,0,0,1,3.38.68,1.26,1.26,0,0,1-1,.4,2.88,2.88,0,0,1-.86-.16h0a7.61,7.61,0,0,1-.85-.36l-.23-.12-.07.25a1.16,1.16,0,0,0,0,.3.53.53,0,0,0,.13.39.42.42,0,0,0,.34.14h0a1.82,1.82,0,0,0,.65-.18,3.36,3.36,0,0,0,.92.16h0a1.8,1.8,0,0,0,1.48-.78,1.86,1.86,0,0,1,.7-.11c.5,0,1.05.1,1.39.1a.52.52,0,0,0,.27-.05.67.67,0,0,0,.35-.5.75.75,0,0,1,.19.45c0,.09,0,.08-.08.12l-.29.07.16.24c.52.79.9,1.16,1.42,1.17a1.55,1.55,0,0,0,.31,0,.63.63,0,0,1,.23,0,1.1,1.1,0,0,1,.76.34,4.14,4.14,0,0,0,1.58.6H133a1.15,1.15,0,0,0,.47-.23.79.79,0,0,1,.42-.15h0a.31.31,0,0,1,0,.1,3.45,3.45,0,0,1-.79.79s0,0,0,0C132.71,58.15,130.86,57.64,130.64,57.62Zm2,.89v3.24h-1.34V58.21C131.77,58.32,132.3,58.45,132.68,58.51Zm-1.76-.4v3.64c-1.4,0-2.72.06-4,.13v-3.8a3,3,0,0,0,1.51.64h.14c1.18-.11,1.44-.71,2-.67h.06A1.85,1.85,0,0,1,130.92,58.11Zm-4.4-.09v3.89c-.45,0-.9.05-1.33.09V58.68l.48-.3A2,2,0,0,1,126.52,58Zm-1.76.92V62c-1.45.11-2.77.26-4,.42V59.76H121c.38,0,.6.09.81.09a.55.55,0,0,0,.54-.4,1.31,1.31,0,0,0,.58.12A4.1,4.1,0,0,0,124.76,58.94Zm-4.39.8v2.77L119,62.7v-3l.76,0Zm14.46-11.28a3.26,3.26,0,0,1-2,1.53l-.15,0v7.13a3.65,3.65,0,0,1-1.06-.44,2.26,2.26,0,0,0-.28-.2V50l-.16,0a3.32,3.32,0,0,1-2.48-3.2v-13a3.29,3.29,0,0,1,6.14-1.67,3.75,3.75,0,0,0-.41,1.67v13A3.74,3.74,0,0,0,134.83,48.46Zm-5.91.4a3.74,3.74,0,0,0,2,1.49v6a1.21,1.21,0,0,0-.34,0,1.4,1.4,0,0,0-.34,0l-.2,0c-.24,0-.51-.17-.94-.79a.55.55,0,0,0,.15-.39,1.28,1.28,0,0,0-.76-1.11l-.24,0v.24c0,.35,0,.56-.13.59H128c-.21,0-.63-.06-1.08-.09V50.35A3.66,3.66,0,0,0,128.92,48.86Zm-.24-.4a3.29,3.29,0,0,1-2,1.53l-.16,0v4.73a1.88,1.88,0,0,0-.75.13l-.58-.15V50L125,50a3.3,3.3,0,0,1-2.48-3.2v-13a3.29,3.29,0,0,1,6.14-1.66,3.7,3.7,0,0,0-.41,1.66v13A3.74,3.74,0,0,0,128.68,48.46Zm-5.91.4a3.72,3.72,0,0,0,2,1.49v4.28a11.33,11.33,0,0,0-2.73-.49,2.6,2.6,0,0,0-.4,0,3.58,3.58,0,0,0-.84.16v-4A3.76,3.76,0,0,0,122.77,48.86Zm-.24-.4a3.32,3.32,0,0,1-2,1.53l-.16,0v4.49a3.46,3.46,0,0,0-.45.37c-.23.16-.56.36-.58.75a.67.67,0,0,0,0,.18.87.87,0,0,0,.6.65,1,1,0,0,0-.42.82,1.68,1.68,0,0,0,.19.72,6.78,6.78,0,0,0-.71.07V50l-.16,0a3.31,3.31,0,0,1-2.48-3.2v-13a3.31,3.31,0,0,1,3.31-3.31,3.27,3.27,0,0,1,2.83,1.65,3.7,3.7,0,0,0-.4,1.66v13A3.61,3.61,0,0,0,122.53,48.46Zm12.33-1.67v-13A3.29,3.29,0,0,1,141,32.15a3.65,3.65,0,0,0-.41,1.67v13a3.74,3.74,0,0,0,.4,1.67A3.29,3.29,0,0,1,139,50l-.16,0v2.84c-.12.29-.19.59-.28.61l-.93.57-.13.09V50l-.16,0A3.3,3.3,0,0,1,134.86,46.79Zm8.63,3.2a3.32,3.32,0,0,1-2.48-3.2v-13a3.31,3.31,0,1,1,6.61,0v13a3.3,3.3,0,0,1-2.48,3.2L145,50v1.79h-.12l-.77,0h-.44V50Zm-2.26-1.12a3.74,3.74,0,0,0,2,1.48V51.8h-.44l-.58,0-.53,0h-.05a.13.13,0,0,0,0-.06c-.12-.29-.28-.88-.77-1a.25.25,0,0,0-.16,0,1.71,1.71,0,0,0-.34,1.13A1.53,1.53,0,0,0,140,52c-.24.14-.51.27-.74.43V50.35A3.73,3.73,0,0,0,141.23,48.87ZM132,73.46a19.82,19.82,0,0,1-16.9-9.57A75.08,75.08,0,0,1,132,62.16a74.67,74.67,0,0,1,16.9,1.74A19.84,19.84,0,0,1,132,73.46Z" transform="translate(-1.54 -1.47)"/><path class="cls-6" d="M148,25c-4-3.56-9.7-5.48-16-5.48S120,21.48,116,25h-5.87V53.66a21.89,21.89,0,0,0,43.78,0V25Zm-31.4,0C120.52,21.76,126,20,132,20S143.5,21.76,147.39,25H116.63Zm36.84,28.62a21.47,21.47,0,0,1-42.93,0V25.46h42.93Z" transform="translate(-1.54 -1.47)"/></svg>